# xmcd
#
# Track frame offsets:
#	180
#	16847
#	31291
#	48965
#	64215
#	85170
#	104412
#	118802
#	135840
#	147061
#	163595
#	185316
#
# Disc length: 2701 seconds
#
# Revision: 1
# Processed by: cddbd v1.4PL0 Copyright (c) Steve Scherf et al.
# Submitted via: audiograbber 1.80.04
#
DISCID=950a8b0c
DTITLE=Starlite Orchestra, The - Bee Gees
DYEAR=1900
DGENRE=
TTITLE0=How Deep Is Your Love
TTITLE1=Words
TTITLE2=Stayin' Alive
TTITLE3=To Love Somebody
TTITLE4=Too Much Heaven
TTITLE5=Jive Talking
TTITLE6=Grease
TTITLE7=Guilty
TTITLE8=Massachusetts
TTITLE9=How Can You Mend A Broken Heart
TTITLE10=Heartbreaker
TTITLE11=Woman In Love
EXTD=
EXTT0=
EXTT1=
EXTT2=
EXTT3=
EXTT4=
EXTT5=
EXTT6=
EXTT7=
EXTT8=
EXTT9=
EXTT10=
EXTT11=
PLAYORDER=
